<?xml version="1.0" encoding="UTF-8"?>
<svg width="18px" height="18px" viewBox="0 0 18 18" version="1.1" xmlns="http://www.w3.org/2000/svg" xmlns:xlink="http://www.w3.org/1999/xlink">
    <!-- Generator: sketchtool 63.1 (101010) - https://sketch.com -->
    <title>2361D495-20FE-4F6F-A153-851A378CF991@1.5x</title>
    <desc>Created with sketchtool.</desc>
    <g id="Page-1" stroke="none" stroke-width="1" fill="none" fill-rule="evenodd">
        <g id="10_addEmployee_empImage_added" transform="translate(-422.000000, -386.000000)">
            <g id="Group-40" transform="translate(401.000000, 140.000000)">
                <g id="Group-37" transform="translate(21.000000, 246.000000)">
                    <circle id="Oval" fill="#FFFFFF" cx="9" cy="9" r="9"></circle>
                    <g id="change_image">
                        <rect id="Rectangle" x="0" y="0" width="18" height="18"></rect>
                        <rect id="Rectangle" x="0" y="0" width="18" height="18"></rect>
                        <path d="M11.55,6.93 L12.19,6.93 L12.19,6.29 L11.55,6.29 L11.55,6.93 Z M11.55,8.11 L12.19,8.11 L12.19,7.52 L11.55,7.52 L11.55,8.11 Z M11.55,9.3 L12.19,9.3 L12.19,8.7 L11.55,8.7 L11.55,9.3 Z M11.55,10.48 L12.19,10.48 L12.19,9.89 L11.55,9.89 L11.55,10.48 Z M11.55,11.71 L12.19,11.71 L12.19,11.07 L11.55,11.07 L11.55,11.71 Z M10.42,6.93 L11,6.93 L11,6.29 L10.43,6.29 L10.42,6.93 Z M10.42,11.71 L11,11.71 L11,11.07 L10.43,11.07 L10.42,11.71 Z M10.15,9.89 L7.37,11.07 L7.58,11.07 L7.58,11.71 L7,11.71 L7,11.22 L7,11.22 L6.4,11.48 C5.98854311,11.6532883 5.51444781,11.4609666 5.34,11.05 L4.22,8.36 C4.13396676,8.16267858 4.13108365,7.93901206 4.21200213,7.7395386 C4.29292061,7.54006514 4.45081192,7.38161843 4.65,7.3 L8.38,5.71 C8.79147783,5.54252979 9.26148384,5.7331926 9.44,6.14 L9.5,6.29 L9.85,6.29 L9.85,6.93 L9.77,6.93 L10.58,8.83 C10.7532883,9.24145689 10.5609666,9.71555219 10.15,9.89 Z M9.28,11.71 L9.85,11.71 L9.85,11.07 L9.28,11.07 L9.28,11.71 Z M8.15,11.71 L8.72,11.71 L8.72,11.07 L8.15,11.07 L8.15,11.71 Z M9,1 C4.581722,1 1,4.581722 1,9 C1,13.418278 4.581722,17 9,17 C13.418278,17 17,13.418278 17,9 C17,6.87826808 16.1571453,4.84343678 14.6568542,3.34314575 C13.1565632,1.84285472 11.1217319,1 9,1 Z" id="Shape" fill="#71757B"></path>
                        <path d="M7.34,8 C7.1190861,8 6.94,7.8209139 6.94,7.6 C6.94,7.3790861 7.1190861,7.2 7.34,7.2 C7.5609139,7.2 7.74,7.3790861 7.74,7.6 C7.74,7.8209139 7.5609139,8 7.34,8 L7.34,8 Z M9,6.32 C8.92171642,6.13318586 8.70777185,6.04404228 8.52,6.12 L4.82,7.71 C4.7284314,7.7454103 4.65529694,7.81668211 4.61753661,7.90730692 C4.57977627,7.99793173 4.58066611,8.10004699 4.62,8.19 L5.43,10.08 L6,8.82 L7.79,9.31 L8.48,8 L9.92,8.38 L9,6.32 Z" id="Shape" fill="#71757B"></path>
                    </g>
                </g>
            </g>
        </g>
    </g>
</svg>